<svg xmlns="http://www.w3.org/2000/svg" width="212.28" height="35" viewBox="0 0 212.28 35"><rect class="svg__rect" x="0" y="0" width="117.03" height="35" fill="#E46C17"/><rect class="svg__rect" x="115.03" y="0" width="97.25" height="35" fill="#D35B09"/><path class="svg__text" d="M17.33 22L14.22 22L14.22 13.47L17.14 13.47Q18.59 13.47 19.34 14.05Q20.10 14.63 20.10 15.78L20.10 15.78Q20.10 16.36 19.78 16.83Q19.47 17.30 18.86 17.56L18.86 17.56Q19.55 17.75 19.93 18.26Q20.31 18.78 20.31 19.51L20.31 19.51Q20.31 20.71 19.53 21.36Q18.76 22 17.33 22L17.33 22ZM15.70 18.15L15.70 20.82L17.35 20.82Q18.04 20.82 18.44 20.47Q18.83 20.13 18.83 19.51L18.83 19.51Q18.83 18.18 17.47 18.15L17.47 18.15L15.70 18.15ZM15.70 14.66L15.70 17.06L17.15 17.06Q17.84 17.06 18.23 16.75Q18.62 16.43 18.62 15.86L18.62 15.86Q18.62 15.23 18.26 14.95Q17.90 14.66 17.14 14.66L17.14 14.66L15.70 14.66ZM24.64 19.16L24.64 19.16L24.64 13.47L26.12 13.47L26.12 19.18Q26.12 20.03 26.55 20.48Q26.98 20.93 27.83 20.93L27.83 20.93Q29.54 20.93 29.54 19.13L29.54 19.13L29.54 13.47L31.02 13.47L31.02 19.17Q31.02 20.53 30.15 21.32Q29.28 22.12 27.83 22.12L27.83 22.12Q26.36 22.12 25.50 21.33Q24.64 20.55 24.64 19.16ZM37.15 22L35.67 22L35.67 13.47L37.15 13.47L37.15 22ZM47.32 22L41.96 22L41.96 13.47L43.44 13.47L43.44 20.82L47.32 20.82L47.32 22ZM53.12 14.66L50.49 14.66L50.49 13.47L57.25 13.47L57.25 14.66L54.59 14.66L54.59 22L53.12 22L53.12 14.66ZM68.37 22L66.40 13.47L67.87 13.47L69.20 19.88L70.82 13.47L72.07 13.47L73.68 19.89L74.99 13.47L76.46 13.47L74.49 22L73.07 22L71.45 15.77L69.79 22L68.37 22ZM82.10 22L80.62 22L80.62 13.47L82.10 13.47L82.10 22ZM88.59 14.66L85.95 14.66L85.95 13.47L92.72 13.47L92.72 14.66L90.06 14.66L90.06 22L88.59 22L88.59 14.66ZM97.96 22L96.48 22L96.48 13.47L97.96 13.47L97.96 17.02L101.77 17.02L101.77 13.47L103.25 13.47L103.25 22L101.77 22L101.77 18.21L97.96 18.21L97.96 22Z" fill="#FFFFFF"/><path class="svg__text" d="M133.19 22L129.22 22L129.22 13.60L133.19 13.60Q134.57 13.60 135.64 14.12Q136.71 14.63 137.30 15.58Q137.88 16.53 137.88 17.80L137.88 17.80Q137.88 19.07 137.30 20.02Q136.71 20.97 135.64 21.48Q134.57 22 133.19 22L133.19 22ZM131.60 15.50L131.60 20.10L133.10 20.10Q134.17 20.10 134.83 19.49Q135.48 18.88 135.48 17.80L135.48 17.80Q135.48 16.72 134.83 16.11Q134.17 15.50 133.10 15.50L133.10 15.50L131.60 15.50ZM141.53 20.93L141.53 20.93L142.83 19.40Q143.50 20.27 144.27 20.27L144.27 20.27Q144.28 20.27 144.28 20.27L144.28 20.27Q144.80 20.27 145.07 19.96Q145.34 19.65 145.34 19.05L145.34 19.05L145.34 15.44L142.44 15.44L142.44 13.60L147.69 13.60L147.69 18.91Q147.69 20.54 146.87 21.36Q146.05 22.17 144.45 22.17L144.45 22.17Q143.53 22.17 142.77 21.85Q142.01 21.53 141.53 20.93ZM154.20 22L151.77 22L155.48 13.60L157.82 13.60L161.54 22L159.07 22L158.41 20.37L154.86 20.37L154.20 22ZM156.63 15.93L155.55 18.61L157.71 18.61L156.63 15.93ZM168.02 22L165.69 22L165.69 13.60L167.65 13.60L171.36 18.07L171.36 13.60L173.68 13.60L173.68 22L171.73 22L168.02 17.52L168.02 22ZM178.42 17.80L178.42 17.80Q178.42 16.54 179.02 15.54Q179.61 14.55 180.68 13.99Q181.75 13.43 183.09 13.43L183.09 13.43Q184.27 13.43 185.21 13.83Q186.15 14.22 186.77 14.97L186.77 14.97L185.26 16.33Q184.41 15.40 183.24 15.40L183.24 15.40Q183.22 15.40 183.22 15.40L183.22 15.40Q182.14 15.40 181.48 16.06Q180.82 16.71 180.82 17.80L180.82 17.80Q180.82 18.50 181.12 19.04Q181.42 19.59 181.96 19.89Q182.50 20.20 183.19 20.20L183.19 20.20Q183.88 20.20 184.48 19.93L184.48 19.93L184.48 17.62L186.58 17.62L186.58 21.10Q185.85 21.61 184.92 21.89Q183.99 22.17 183.05 22.17L183.05 22.17Q181.73 22.17 180.67 21.61Q179.61 21.05 179.02 20.05Q178.42 19.06 178.42 17.80ZM191.14 17.80L191.14 17.80Q191.14 16.55 191.74 15.55Q192.35 14.56 193.41 14.00Q194.47 13.43 195.80 13.43L195.80 13.43Q197.13 13.43 198.20 14.00Q199.26 14.56 199.87 15.55Q200.47 16.55 200.47 17.80L200.47 17.80Q200.47 19.05 199.87 20.04Q199.26 21.04 198.20 21.60Q197.14 22.17 195.80 22.17L195.80 22.17Q194.47 22.17 193.41 21.60Q192.35 21.04 191.74 20.04Q191.14 19.05 191.14 17.80ZM193.54 17.80L193.54 17.80Q193.54 18.51 193.84 19.05Q194.14 19.60 194.66 19.90Q195.17 20.20 195.80 20.20L195.80 20.20Q196.44 20.20 196.96 19.90Q197.47 19.60 197.77 19.05Q198.07 18.51 198.07 17.80L198.07 17.80Q198.07 17.09 197.77 16.54Q197.47 16 196.96 15.70Q196.44 15.40 195.80 15.40L195.80 15.40Q195.17 15.40 194.65 15.70Q194.14 16 193.84 16.54Q193.54 17.09 193.54 17.80Z" fill="#FFFFFF" x="128.03"/></svg>